HIERARCHY
ROOT Hips
{
	OFFSET 0.00 0.00 0.00
	CHANNELS 6 Xposition Yposition Zposition Xrotation Yrotation Zrotation
	JOINT Spine
	{
		OFFSET 0.00000 7.50895 0.00000
		CHANNELS 3 Xrotation Yrotation Zrotation
		JOINT Head
		{
			OFFSET 0.00000 13.86115 0.00000
			CHANNELS 3 Xrotation Yrotation Zrotation
			End Site
			{
				OFFSET 0.00000 4.52755 0.00000
			}
		}
		JOINT LeftShoulder
		{
			OFFSET 0.00000 8.20478 0.00000
			CHANNELS 3 Xrotation Yrotation Zrotation
			JOINT LeftArm
			{
				OFFSET 6.63596 0.00000 0.00000
				CHANNELS 3 Xrotation Yrotation Zrotation
				JOINT LeftForeArm
				{
					OFFSET 10.27422 0.00000 0.00000
					CHANNELS 3 Yrotation Zrotation Xrotation
					JOINT LeftHand
					{
						OFFSET 8.52215 0.00000 0.00000
						CHANNELS 3 Xrotation Yrotation Zrotation
						JOINT LeftHandThumb1
						{
							OFFSET 0.00000 0.00000 0.00000
							CHANNELS 3 Xrotation Zrotation Yrotation
							End Site
							{
								OFFSET 0.00000 0.00000 3.93700
							}
						}
						End Site
						{
							OFFSET 3.93700 0.00000 0.00000
						}
					}
				}
			}
		}
		JOINT RightShoulder
		{
			OFFSET 0.00000 8.20478 0.00000
			CHANNELS 3 Xrotation Yrotation Zrotation
			JOINT RightArm
			{
				OFFSET -6.63596 0.00000 0.00000
				CHANNELS 3 Xrotation Yrotation Zrotation
				JOINT RightForeArm
				{
					OFFSET -10.27422 0.00000 0.00000
					CHANNELS 3 Yrotation Zrotation Xrotation
					JOINT RightHand
					{
						OFFSET -8.52215 0.00000 0.00000
						CHANNELS 3 Xrotation Yrotation Zrotation
						JOINT RightHandThumb1
						{
							OFFSET 0.00000 0.00000 0.00000
							CHANNELS 3 Xrotation Zrotation Yrotation
							End Site
							{
								OFFSET 0.00000 0.00000 3.93700
							}
						}
						End Site
						{
							OFFSET -3.93700 0.00000 0.00000
						}
					}
				}
			}
		}
	}
	JOINT LeftUpLeg
	{
		OFFSET 3.00056 0.00000 0.00000
		CHANNELS 3 Xrotation Yrotation Zrotation
		JOINT LeftLeg
		{
			OFFSET 0.00000 -16.49085 0.00000
			CHANNELS 3 Xrotation Yrotation Zrotation
			JOINT LeftFoot
			{
				OFFSET 0.00000 -14.55658 0.00000
				CHANNELS 3 Xrotation Yrotation Zrotation
				JOINT LeftToeBase
				{
					OFFSET 0.00000 -1.25038 4.66650
					CHANNELS 3 Xrotation Yrotation Zrotation
					End Site
					{
						OFFSET 0.00000 0.00000 2.95275
					}
				}
			}
		}
	}
	JOINT RightUpLeg
	{
		OFFSET -3.00056 0.00000 0.00000
		CHANNELS 3 Xrotation Yrotation Zrotation
		JOINT RightLeg
		{
			OFFSET 0.00000 -16.49085 0.00000
			CHANNELS 3 Xrotation Yrotation Zrotation
			JOINT RightFoot
			{
				OFFSET 0.00000 -14.55658 0.00000
				CHANNELS 3 Xrotation Yrotation Zrotation
				JOINT RightToeBase
				{
					OFFSET 0.00000 -1.25038 4.66650
					CHANNELS 3 Xrotation Yrotation Zrotation
					End Site
					{
						OFFSET 0.00000 0.00000 2.95275
					}
				}
			}
		}
	}
}
MOTION
Frames: 22
Frame Time: 0.008333
 -3.0140 32.7386 2.9055 11.4226 3.0597 -1.6111 -12.3761 4.5197 0.5166 -15.6987 -6.6208 11.1978 8.8783 21.4318 29.8120 -29.0631 -4.0395 -24.9866 -12.5319 -0.0000 10.2811 4.2424 25.9267 -9.6292 33.1476 -0.0000 26.2537 -22.2438 -8.7690 -40.2419 -2.3199 -11.2043 29.3064 14.3222 -0.0000 29.9260 1.3803 -12.0594 6.5787 32.8623 0.0000 -24.3270 -5.4123 0.7170 1.6651 -0.3978 0.0000 0.0000 -9.9431 9.6405 -12.8573 8.9978 -0.0000 -0.0000 -7.1738 -5.1506 -0.3300 2.9562 0.0000 -0.0000 -9.9826 -8.4764 -1.6715 -0.5818 0.0000 0.0000
 -3.0139 32.7388 2.9048 11.4117 3.0618 -1.6071 -12.3725 4.5119 0.5080 -15.7125 -6.6051 11.2069 8.8811 21.4328 29.8139 -29.0777 -4.0158 -25.0046 -12.5389 -0.0000 10.3129 4.2770 25.9283 -9.7061 33.1476 -0.0000 26.2537 -22.2308 -8.7719 -40.2139 -2.3760 -11.2231 29.2800 14.3371 -0.0000 29.9934 1.3885 -12.0791 6.6069 32.8623 0.0000 -24.3270 -5.4164 0.7208 1.6587 -0.3675 0.0000 0.0000 -9.9561 9.6397 -12.8388 8.9776 0.0000 -0.0000 -7.1671 -5.1632 -0.3325 2.9530 0.0000 -0.0000 -9.9668 -8.4263 -1.7049 -0.5793 -0.0000 -0.0000
 -3.0135 32.7385 2.9044 11.3960 3.0708 -1.6041 -12.3592 4.5035 0.4982 -15.7448 -6.5993 11.2120 8.8804 21.4307 29.8075 -29.0717 -4.0144 -25.0055 -12.5362 -0.0000 10.3222 4.3050 25.8667 -9.7897 33.1476 -0.0000 26.2537 -22.2094 -8.7830 -40.2135 -2.3794 -11.2119 29.2940 14.3221 -0.0000 29.9689 1.3765 -12.0411 6.5709 32.8623 0.0000 -24.3270 -5.4070 0.7012 1.6550 -0.3562 0.0000 -0.0000 -9.9728 9.6511 -12.8110 9.0097 0.0000 -0.0000 -7.1529 -5.1812 -0.3378 2.9567 0.0000 0.0000 -9.9727 -8.4091 -1.6746 -0.6116 0.0000 0.0000
 -3.0130 32.7385 2.9029 11.3913 3.0718 -1.6036 -12.3547 4.5126 0.4954 -15.7858 -6.5885 11.2213 8.8841 21.4312 29.8092 -29.0957 -4.0020 -25.0294 -12.5469 -0.0000 10.3249 4.3385 25.8342 -9.8762 33.1476 -0.0000 26.2537 -22.2240 -8.7631 -40.2451 -2.3718 -11.2873 29.3477 14.4533 -0.0000 30.0284 1.3964 -12.4770 6.4374 32.8623 0.0000 -24.3270 -5.4154 0.7063 1.6528 -0.3347 -0.0000 -0.0000 -9.9775 9.6475 -12.8003 8.9729 -0.0000 -0.0000 -7.1538 -5.1734 -0.3386 2.9653 -0.0000 0.0000 -10.0008 -8.4237 -1.6046 -0.4883 0.0000 -0.0000
 -3.0126 32.7386 2.9023 11.3777 3.0761 -1.5989 -12.3488 4.5156 0.4912 -15.7896 -6.5913 11.2152 8.8942 21.4279 29.8026 -29.0780 -4.0237 -25.0407 -12.5262 -0.0000 10.3055 4.3314 25.8203 -9.8650 33.1476 -0.0000 26.2537 -22.2214 -8.7729 -40.2245 -2.3558 -11.2226 29.3084 14.3410 -0.0000 29.9614 1.3746 -12.0501 6.5567 32.8623 0.0000 -24.3270 -5.4023 0.6868 1.6468 -0.3347 -0.0000 -0.0000 -9.9820 9.6621 -12.7684 8.9739 -0.0000 0.0000 -7.1419 -5.1777 -0.3449 2.9659 0.0000 0.0000 -10.0023 -8.4106 -1.6231 -0.4835 0.0000 -0.0000
 -3.0121 32.7382 2.9011 11.3743 3.0811 -1.5917 -12.3511 4.5121 0.4798 -15.8112 -6.5853 11.2147 8.8912 21.3561 29.8073 -29.0085 -3.9398 -25.0252 -12.5715 -0.0000 10.2520 4.2881 25.8034 -9.7737 33.1476 -0.0000 26.2537 -22.2231 -8.7631 -40.2298 -2.3482 -11.2264 29.3213 14.3503 -0.0000 29.9610 1.3811 -12.0788 6.5723 32.8623 0.0000 -24.3270 -5.4077 0.6932 1.6389 -0.3228 -0.0000 0.0000 -9.9844 9.6419 -12.7718 8.9698 -0.0000 0.0000 -7.1441 -5.1741 -0.3544 2.9717 0.0000 0.0000 -9.9848 -8.4257 -1.6701 -0.6023 0.0000 -0.0000
 -3.0114 32.7385 2.8999 11.3639 3.0862 -1.5903 -12.3464 4.5207 0.4725 -15.8165 -6.6056 11.2321 8.8833 21.3860 29.8044 -29.0020 -4.0461 -25.0489 -12.4960 -0.0000 10.2295 4.2486 25.7128 -9.7163 33.1476 -0.0000 26.2537 -22.2193 -8.7735 -40.2049 -2.4045 -11.2480 29.2880 14.3531 -0.0000 30.0054 1.3869 -12.0475 6.6166 32.8623 0.0000 -24.3270 -5.4037 0.6911 1.6360 -0.3151 -0.0000 -0.0000 -9.9842 9.6364 -12.7933 9.0000 0.0000 -0.0000 -7.1370 -5.1778 -0.3548 2.9760 -0.0000 -0.0000 -10.0107 -8.4244 -1.6363 -0.5197 -0.0000 -0.0000
 -3.0097 32.7382 2.8987 11.3567 3.0904 -1.5796 -12.3421 4.5015 0.4630 -15.8353 -6.5966 11.2213 8.8653 21.3241 29.8171 -28.9340 -3.9529 -25.0385 -12.5462 -0.0000 10.2475 4.2641 25.7139 -9.7509 33.1476 -0.0000 26.2537 -22.2155 -8.7599 -40.2287 -2.3787 -11.2125 29.3320 14.3264 -0.0000 29.9458 1.3841 -12.0465 6.6035 32.8623 0.0000 -24.3270 -5.3995 0.6889 1.6211 -0.3120 0.0000 -0.0000 -9.9796 9.6346 -12.7748 8.9643 0.0000 0.0000 -7.1355 -5.1672 -0.3713 2.9852 0.0000 0.0000 -9.9997 -8.4331 -1.6763 -0.5653 -0.0000 0.0000
 -3.0090 32.7377 2.8978 11.3475 3.0994 -1.5763 -12.3387 4.5002 0.4545 -15.8441 -6.6277 11.2210 8.8687 21.3175 29.8135 -28.8810 -4.0023 -25.0326 -12.5199 -0.0000 10.1848 4.2510 25.7421 -9.7117 33.1476 -0.0000 26.2537 -22.2197 -8.7458 -40.2351 -2.3797 -11.2284 29.3406 14.3260 -0.0000 29.9427 1.3864 -12.0251 6.6259 32.8623 0.0000 -24.3270 -5.3917 0.6605 1.6162 -0.3121 0.0000 0.0000 -9.9836 9.6610 -12.7878 9.0078 -0.0000 0.0000 -7.1297 -5.1718 -0.3741 2.9891 0.0000 0.0000 -10.0016 -8.4532 -1.7256 -0.6277 -0.0000 -0.0000
 -3.0079 32.7379 2.8966 11.3420 3.1089 -1.5755 -12.3405 4.5081 0.4487 -15.8440 -6.6526 11.2285 8.8531 21.3354 29.8199 -28.8849 -4.0666 -25.0661 -12.4909 -0.0000 10.2406 4.2185 25.6947 -9.6548 33.1476 -0.0000 26.2537 -22.2235 -8.7502 -40.2119 -2.4205 -11.2492 29.3048 14.3425 -0.0000 29.9855 1.4022 -12.0392 6.6933 32.8623 0.0000 -24.3270 -5.3884 0.6498 1.6120 -0.3155 0.0000 -0.0000 -9.9609 9.6493 -12.6970 8.9076 -0.0000 -0.0000 -7.1256 -5.1577 -0.3776 2.9903 0.0000 0.0000 -10.0078 -8.4761 -1.7047 -0.5683 -0.0000 -0.0000
 -3.0073 32.7379 2.8958 11.3392 3.1157 -1.5729 -12.3438 4.4994 0.4417 -15.8535 -6.6689 11.2298 8.8821 21.3203 29.8089 -28.8814 -4.0271 -25.0488 -12.5350 -0.0000 10.2289 4.2626 25.7455 -9.7366 33.1476 -0.0000 26.2537 -22.2358 -8.7413 -40.2191 -2.4233 -11.2370 29.3180 14.3300 -0.0000 29.9864 1.4038 -12.0447 6.6978 32.8623 0.0000 -24.3270 -5.3860 0.6383 1.6091 -0.3145 -0.0000 -0.0000 -9.9825 9.6594 -12.7702 9.0007 -0.0000 -0.0000 -7.1226 -5.1448 -0.3823 2.9890 -0.0000 0.0000 -10.0275 -8.4706 -1.6324 -0.5004 -0.0000 -0.0000
 -3.0059 32.7381 2.8938 11.3352 3.1242 -1.5740 -12.3456 4.4996 0.4336 -15.8503 -6.6971 11.2513 8.8458 21.3248 29.8096 -28.8524 -4.1229 -25.0479 -12.4652 -0.0000 10.1973 4.2136 25.7424 -9.6275 33.1476 -0.0000 26.2537 -22.2283 -8.7448 -40.1979 -2.4322 -11.2274 29.3001 14.3233 -0.0000 29.9659 1.4062 -12.0496 6.7066 32.8623 0.0000 -24.3270 -5.3872 0.6263 1.6072 -0.3123 0.0000 -0.0000 -9.9744 9.6503 -12.7566 8.9238 0.0000 0.0000 -7.1103 -5.1101 -0.3838 2.9676 0.0000 -0.0000 -9.9948 -8.5245 -1.6851 -0.5846 -0.0000 0.0000
 -3.0039 32.7379 2.8920 11.3319 3.1314 -1.5699 -12.3462 4.4925 0.4278 -15.8534 -6.7169 11.2507 8.8252 21.3299 29.8166 -28.8478 -4.1191 -25.0632 -12.5194 -0.0000 10.2317 4.2180 25.7283 -9.6422 33.1476 -0.0000 26.2537 -22.2256 -8.7368 -40.1963 -2.4297 -11.2102 29.3029 14.3087 -0.0000 29.9645 1.3992 -12.0099 6.6950 32.8623 0.0000 -24.3270 -5.3899 0.6226 1.5977 -0.3077 0.0000 0.0000 -9.9785 9.6655 -12.7543 9.0005 0.0000 0.0000 -7.1228 -5.1380 -0.3914 2.9921 0.0000 0.0000 -9.9983 -8.5113 -1.7189 -0.5935 -0.0000 -0.0000
 -3.0027 32.7380 2.8905 11.3327 3.1437 -1.5743 -12.3532 4.4841 0.4180 -15.8559 -6.7484 11.2864 8.8029 21.3202 29.8333 -28.8548 -4.1343 -25.0672 -12.5022 -0.0000 10.2416 4.2115 25.7184 -9.6309 33.1476 -0.0000 26.2537 -22.2103 -8.7290 -40.2054 -2.4279 -11.2456 29.3457 14.3974 -0.0000 30.0133 1.4064 -12.3417 6.5525 32.8623 0.0000 -24.3270 -5.3951 0.6038 1.5986 -0.3043 -0.0000 -0.0000 -9.9789 9.6665 -12.7525 8.9807 0.0000 -0.0000 -7.1247 -5.1373 -0.3932 2.9950 -0.0000 0.0000 -10.0314 -8.5157 -1.6277 -0.4658 -0.0000 -0.0000
 -3.0009 32.7381 2.8877 11.3313 3.1662 -1.5731 -12.3525 4.4600 0.4173 -15.8536 -6.7601 11.2687 8.7843 21.2898 29.8217 -28.8031 -4.1344 -25.0395 -12.5225 -0.0000 10.2511 4.2178 25.7414 -9.6372 33.1476 -0.0000 26.2537 -22.2109 -8.7403 -40.1738 -2.4591 -11.1826 29.2933 14.2963 -0.0000 29.9786 1.3852 -11.9510 6.6607 32.8623 0.0000 -24.3270 -5.4062 0.5899 1.5912 -0.2919 -0.0000 0.0000 -9.9821 9.6602 -12.7450 8.9648 0.0000 0.0000 -7.1253 -5.1567 -0.4014 2.9944 0.0000 0.0000 -10.0069 -8.5151 -1.6784 -0.6144 0.0000 0.0000
 -2.9989 32.7380 2.8847 11.3340 3.1790 -1.5682 -12.3526 4.4559 0.3950 -15.8586 -6.7875 11.3020 8.7993 21.3135 29.8283 -28.8307 -4.1665 -25.0501 -12.5211 -0.0000 10.2846 4.1808 25.7116 -9.5641 33.1476 -0.0000 26.2537 -22.1992 -8.7373 -40.1907 -2.4275 -11.2063 29.3525 14.4000 -0.0000 29.9850 1.3957 -12.2879 6.5310 32.8623 0.0000 -24.3270 -5.4199 0.5838 1.5782 -0.2802 0.0000 -0.0000 -10.0083 9.6440 -12.6447 9.0344 0.0000 0.0000 -7.1342 -5.1564 -0.4143 2.9996 -0.0000 -0.0000 -10.0149 -8.5175 -1.6639 -0.5942 0.0000 -0.0000
 -2.9968 32.7378 2.8818 11.3344 3.1955 -1.5671 -12.3522 4.4431 0.3877 -15.8608 -6.7905 11.3122 8.7902 21.3043 29.8332 -28.8076 -4.1779 -25.0407 -12.5349 -0.0000 10.2890 4.1878 25.7719 -9.5592 33.1476 -0.0000 26.2537 -22.2037 -8.7345 -40.1852 -2.4281 -11.1760 29.3535 14.3749 -0.0000 30.0132 1.3845 -12.2547 6.4958 32.8623 0.0000 -24.3270 -5.4364 0.5833 1.5719 -0.2642 -0.0000 -0.0000 -9.9920 9.6316 -12.7242 9.0426 0.0000 -0.0000 -7.1380 -5.1584 -0.4222 2.9992 -0.0000 0.0000 -10.0156 -8.5373 -1.6737 -0.5868 0.0000 0.0000
 -2.9940 32.7379 2.8779 11.3399 3.2163 -1.5614 -12.3535 4.4290 0.3721 -15.8606 -6.8154 11.3172 8.7899 21.3122 29.8255 -28.8103 -4.2191 -25.0314 -12.5119 -0.0000 10.2928 4.1654 25.7282 -9.5237 33.1476 -0.0000 26.2537 -22.1949 -8.7455 -40.1817 -2.4373 -11.1621 29.3607 14.3868 -0.0000 29.9932 1.3871 -12.2421 6.5146 32.8623 0.0000 -24.3270 -5.4609 0.5709 1.5561 -0.2381 -0.0000 0.0000 -10.0136 9.6268 -12.6419 9.0297 0.0000 -0.0000 -7.1478 -5.1662 -0.4384 2.9980 -0.0000 0.0000 -10.0180 -8.5312 -1.6592 -0.5782 0.0000 -0.0000
 -2.9921 32.7376 2.8742 11.3425 3.2308 -1.5565 -12.3489 4.4198 0.3630 -15.8722 -6.8267 11.3081 8.7834 21.3041 29.8439 -28.8598 -4.1376 -25.0507 -12.6232 -0.0000 10.3124 4.2036 25.7490 -9.6026 33.1476 -0.0000 26.2537 -22.2127 -8.7144 -40.1810 -2.4257 -11.2037 29.3678 14.4441 -0.0000 30.0490 1.3850 -12.2971 6.4763 32.8623 0.0000 -24.3270 -5.4875 0.5991 1.5441 -0.2125 -0.0000 0.0000 -10.0363 9.5591 -12.6474 9.0751 0.0000 0.0000 -7.1323 -5.1185 -0.4517 2.9521 0.0000 0.0000 -9.9981 -8.5775 -1.6233 -0.5436 0.0000 0.0000
 -2.9890 32.7379 2.8694 11.3502 3.2414 -1.5622 -12.3451 4.4179 0.3607 -15.8942 -6.8372 11.3224 8.7717 21.3045 29.8602 -28.8702 -4.1426 -25.0661 -12.6346 -0.0000 10.3164 4.1913 25.8717 -9.5334 33.1476 -0.0000 26.2537 -22.2233 -8.6975 -40.1969 -2.4558 -11.2606 29.3861 14.4822 -0.0000 30.2352 1.4082 -12.1823 6.6446 32.8623 0.0000 -24.3270 -5.5212 0.5948 1.5411 -0.1695 -0.0000 0.0000 -10.0473 9.5931 -12.6301 9.0037 0.0000 -0.0000 -7.1441 -5.1103 -0.4571 2.9471 0.0000 0.0000 -9.9882 -8.5870 -1.6119 -0.5814 -0.0000 -0.0000
 -2.9865 32.7378 2.8660 11.3477 3.2666 -1.5586 -12.3343 4.4117 0.3391 -15.8891 -6.8560 11.3455 8.7819 21.3040 29.8735 -28.9049 -4.1394 -25.0681 -12.6425 -0.0000 10.3481 4.2142 25.7768 -9.6169 33.1476 -0.0000 26.2537 -22.2182 -8.7150 -40.1860 -2.4510 -11.2231 29.3796 14.4427 -0.0000 30.1713 1.4149 -12.1854 6.6741 32.8623 0.0000 -24.3270 -5.5425 0.5907 1.5288 -0.1410 -0.0000 -0.0000 -10.0424 9.5691 -12.6436 8.9937 -0.0000 -0.0000 -7.1400 -5.1099 -0.4726 2.9447 0.0000 -0.0000 -10.0072 -8.6228 -1.5663 -0.4814 0.0000 0.0000
 -2.9825 32.7380 2.8620 11.3456 3.2823 -1.5550 -12.3238 4.4073 0.3318 -15.8878 -6.8709 11.3410 8.8141 21.3189 29.8463 -28.9451 -4.1835 -25.0510 -12.5958 -0.0000 10.3418 4.1839 25.7991 -9.5412 33.1476 -0.0000 26.2537 -22.2195 -8.7050 -40.1632 -2.4774 -11.2261 29.3546 14.3894 -0.0000 30.2032 1.4003 -11.9687 6.7226 32.8623 0.0000 -24.3270 -5.5622 0.5884 1.5149 -0.1115 0.0000 -0.0000 -10.0401 9.5732 -12.6802 8.9964 0.0000 -0.0000 -7.1395 -5.1065 -0.4875 2.9376 0.0000 0.0000 -9.9946 -8.6395 -1.5295 -0.4934 0.0000 0.0000
